<svg width="25" height="25" viewBox="0 0 25 25" fill="none" xmlns="http://www.w3.org/2000/svg">
<g clip-path="url(#clip0_118_614)">
<path d="M10.7207 21.2112C10.7207 21.7634 10.273 22.2112 9.7207 22.2112C9.16842 22.2112 8.7207 21.7634 8.7207 21.2112C8.7207 20.6589 9.16842 20.2112 9.7207 20.2112C10.273 20.2112 10.7207 20.6589 10.7207 21.2112Z" fill="black" stroke="black" stroke-linecap="round" stroke-linejoin="round"/>
<path d="M21.7207 21.2112C21.7207 21.7634 21.273 22.2112 20.7207 22.2112C20.1684 22.2112 19.7207 21.7634 19.7207 21.2112C19.7207 20.6589 20.1684 20.2112 20.7207 20.2112C21.273 20.2112 21.7207 20.6589 21.7207 21.2112Z" fill="black" stroke="black" stroke-linecap="round" stroke-linejoin="round"/>
<path d="M6.7207 6.21115L8.4007 14.6012C8.49215 15.0615 8.74261 15.4751 9.10825 15.7694C9.47389 16.0638 9.9314 16.2201 10.4007 16.2112H20.1207C20.59 16.2201 21.0475 16.0638 21.4132 15.7694C21.7788 15.4751 22.0293 15.0615 22.1207 14.6012L23.7207 6.21115H6.7207Z" fill="black" fill-opacity="0.25"/>
<path d="M1.7207 1.21115H5.7207L8.4007 14.6012M8.4007 14.6012C8.49215 15.0615 8.74261 15.4751 9.10825 15.7694C9.47389 16.0638 9.9314 16.2201 10.4007 16.2112H20.1207C20.59 16.2201 21.0475 16.0638 21.4132 15.7694C21.7788 15.4751 22.0293 15.0615 22.1207 14.6012L23.7207 6.21115H6.7207L8.4007 14.6012Z" stroke="black" stroke-width="1.5" stroke-linecap="round" stroke-linejoin="round"/>
</g>
<defs>
<clipPath id="clip0_118_614">
<rect width="24" height="24" fill="white" transform="translate(0.720703 0.211151)"/>
</clipPath>
</defs>
</svg>
