<svg width="21" height="19" viewBox="0 0 21 19" fill="none" xmlns="http://www.w3.org/2000/svg">
<mask id="path-1-inside-1_486_918" fill="white">
<path d="M10.7212 18.0238C10.6257 18.0222 10.5321 17.9964 10.4493 17.9487C10.3462 17.9019 8.02119 16.58 5.65869 14.4613C2.42432 11.5456 0.783693 8.64875 0.783693 5.83625C0.782843 4.67261 1.15531 3.53938 1.84636 2.60315C2.5374 1.66693 3.51056 0.977079 4.62279 0.635015C5.73502 0.292952 6.92765 0.316717 8.02537 0.702817C9.12309 1.08892 10.068 1.81698 10.7212 2.78C11.3744 1.81698 12.3193 1.08892 13.417 0.702817C14.5147 0.316717 15.7074 0.292952 16.8196 0.635015C17.9318 0.977079 18.905 1.66693 19.596 2.60315C20.2871 3.53938 20.6595 4.67261 20.6587 5.83625C20.6587 8.64875 19.0181 11.5456 15.7837 14.4613C13.4212 16.58 11.0962 17.9019 10.9931 17.9487C10.9103 17.9964 10.8167 18.0222 10.7212 18.0238ZM6.22119 1.52375C5.07745 1.52375 3.98055 1.9781 3.17179 2.78685C2.36304 3.5956 1.90869 4.6925 1.90869 5.83625C1.90869 11.2081 9.20244 15.8956 10.7212 16.805C12.2399 15.8956 19.5337 11.2081 19.5337 5.83625C19.5359 4.83769 19.1915 3.86931 18.5592 3.09639C17.927 2.32347 17.0461 1.7939 16.067 1.59807C15.0878 1.40223 14.071 1.55227 13.1901 2.02257C12.3092 2.49287 11.6189 3.25429 11.2368 4.17687C11.1965 4.28082 11.1256 4.37014 11.0336 4.43312C10.9416 4.4961 10.8327 4.5298 10.7212 4.5298C10.6097 4.5298 10.5008 4.4961 10.4088 4.43312C10.3168 4.37014 10.2459 4.28082 10.2056 4.17687C9.87776 3.39054 9.3244 2.71891 8.61529 2.24673C7.90619 1.77455 7.07312 1.52298 6.22119 1.52375Z"/>
<path d="M6.22119 1.52375C5.07745 1.52375 3.98055 1.9781 3.17179 2.78685C2.36304 3.5956 1.90869 4.6925 1.90869 5.83625C1.90869 11.2081 9.20244 15.8956 10.7212 16.805C12.2399 15.8956 19.5337 11.2081 19.5337 5.83625C19.5359 4.83769 19.1915 3.86931 18.5592 3.09639C17.927 2.32347 17.0461 1.7939 16.067 1.59807C15.0878 1.40223 14.071 1.55227 13.1901 2.02257C12.3092 2.49287 11.6189 3.25429 11.2368 4.17687C11.1965 4.28082 11.1256 4.37014 11.0336 4.43312C10.9416 4.4961 10.8327 4.5298 10.7212 4.5298C10.6097 4.5298 10.5008 4.4961 10.4088 4.43312C10.3168 4.37014 10.2459 4.28082 10.2056 4.17687C9.87776 3.39054 9.3244 2.71891 8.61529 2.24673C7.90619 1.77455 7.07312 1.52298 6.22119 1.52375Z"/>
</mask>
<path d="M10.7212 18.0238C10.6257 18.0222 10.5321 17.9964 10.4493 17.9487C10.3462 17.9019 8.02119 16.58 5.65869 14.4613C2.42432 11.5456 0.783693 8.64875 0.783693 5.83625C0.782843 4.67261 1.15531 3.53938 1.84636 2.60315C2.5374 1.66693 3.51056 0.977079 4.62279 0.635015C5.73502 0.292952 6.92765 0.316717 8.02537 0.702817C9.12309 1.08892 10.068 1.81698 10.7212 2.78C11.3744 1.81698 12.3193 1.08892 13.417 0.702817C14.5147 0.316717 15.7074 0.292952 16.8196 0.635015C17.9318 0.977079 18.905 1.66693 19.596 2.60315C20.2871 3.53938 20.6595 4.67261 20.6587 5.83625C20.6587 8.64875 19.0181 11.5456 15.7837 14.4613C13.4212 16.58 11.0962 17.9019 10.9931 17.9487C10.9103 17.9964 10.8167 18.0222 10.7212 18.0238ZM6.22119 1.52375C5.07745 1.52375 3.98055 1.9781 3.17179 2.78685C2.36304 3.5956 1.90869 4.6925 1.90869 5.83625C1.90869 11.2081 9.20244 15.8956 10.7212 16.805C12.2399 15.8956 19.5337 11.2081 19.5337 5.83625C19.5359 4.83769 19.1915 3.86931 18.5592 3.09639C17.927 2.32347 17.0461 1.7939 16.067 1.59807C15.0878 1.40223 14.071 1.55227 13.1901 2.02257C12.3092 2.49287 11.6189 3.25429 11.2368 4.17687C11.1965 4.28082 11.1256 4.37014 11.0336 4.43312C10.9416 4.4961 10.8327 4.5298 10.7212 4.5298C10.6097 4.5298 10.5008 4.4961 10.4088 4.43312C10.3168 4.37014 10.2459 4.28082 10.2056 4.17687C9.87776 3.39054 9.3244 2.71891 8.61529 2.24673C7.90619 1.77455 7.07312 1.52298 6.22119 1.52375Z" fill="black"/>
<path d="M6.22119 1.52375C5.07745 1.52375 3.98055 1.9781 3.17179 2.78685C2.36304 3.5956 1.90869 4.6925 1.90869 5.83625C1.90869 11.2081 9.20244 15.8956 10.7212 16.805C12.2399 15.8956 19.5337 11.2081 19.5337 5.83625C19.5359 4.83769 19.1915 3.86931 18.5592 3.09639C17.927 2.32347 17.0461 1.7939 16.067 1.59807C15.0878 1.40223 14.071 1.55227 13.1901 2.02257C12.3092 2.49287 11.6189 3.25429 11.2368 4.17687C11.1965 4.28082 11.1256 4.37014 11.0336 4.43312C10.9416 4.4961 10.8327 4.5298 10.7212 4.5298C10.6097 4.5298 10.5008 4.4961 10.4088 4.43312C10.3168 4.37014 10.2459 4.28082 10.2056 4.17687C9.87776 3.39054 9.3244 2.71891 8.61529 2.24673C7.90619 1.77455 7.07312 1.52298 6.22119 1.52375Z" fill="#CABFB4"/>
<path d="M6.22119 1.52375V2.02375L6.22165 2.02375L6.22119 1.52375ZM1.90869 5.83625H1.40869H1.90869ZM10.7212 16.805L10.4643 17.234L10.7212 17.3878L10.9781 17.234L10.7212 16.805ZM19.5337 5.83625L19.0337 5.83516V5.83625H19.5337ZM11.2368 4.17687L10.7747 3.98553L10.7707 3.99591L11.2368 4.17687ZM10.7212 4.5298V4.0298V4.5298ZM10.2056 4.17687L10.6718 3.99585L10.6671 3.98448L10.2056 4.17687ZM6.22119 1.02375C4.94484 1.02375 3.72076 1.53078 2.81824 2.4333L3.52535 3.1404C4.24033 2.42542 5.21006 2.02375 6.22119 2.02375V1.02375ZM2.81824 2.4333C1.91572 3.33582 1.40869 4.55989 1.40869 5.83625H2.40869C2.40869 4.82511 2.81037 3.85539 3.52535 3.1404L2.81824 2.4333ZM1.40869 5.83625C1.40869 8.73645 3.36418 11.3767 5.3969 13.3526C7.4496 15.3479 9.68954 16.7701 10.4643 17.234L10.9781 16.376C10.2341 15.9306 8.06779 14.5543 6.09392 12.6355C4.10008 10.6974 2.40869 8.30792 2.40869 5.83625H1.40869ZM10.9781 17.234C11.7528 16.7701 13.9928 15.3479 16.0455 13.3526C18.0782 11.3767 20.0337 8.73645 20.0337 5.83625H19.0337C19.0337 8.30792 17.3423 10.6974 15.3485 12.6355C13.3746 14.5543 11.2083 15.9306 10.4643 16.376L10.9781 17.234ZM20.0337 5.83734C20.0361 4.723 19.6518 3.64236 18.9462 2.77982L18.1722 3.41296C18.7311 4.09627 19.0356 4.95237 19.0337 5.83516L20.0337 5.83734ZM18.9462 2.77982C18.2407 1.91728 17.2577 1.32632 16.165 1.10778L15.9689 2.08836C16.8345 2.26149 17.6133 2.72966 18.1722 3.41296L18.9462 2.77982ZM16.165 1.10778C15.0723 0.889238 13.9376 1.05667 12.9546 1.5815L13.4256 2.46364C14.2044 2.04787 15.1033 1.91523 15.9689 2.08836L16.165 1.10778ZM12.9546 1.5815C11.9716 2.10632 11.2012 2.95602 10.7749 3.98558L11.6988 4.36817C12.0365 3.55255 12.6469 2.87942 13.4256 2.46364L12.9546 1.5815ZM10.7707 3.99591C10.7668 4.00589 10.76 4.01447 10.7512 4.02052L11.316 4.84573C11.4912 4.72581 11.6261 4.55575 11.7029 4.35784L10.7707 3.99591ZM10.7512 4.02052C10.7424 4.02657 10.7319 4.0298 10.7212 4.0298V5.0298C10.9335 5.0298 11.1408 4.96564 11.316 4.84573L10.7512 4.02052ZM10.7212 4.0298C10.7105 4.0298 10.7 4.02657 10.6912 4.02052L10.1264 4.84573C10.3015 4.96564 10.5089 5.0298 10.7212 5.0298V4.0298ZM10.6912 4.02052C10.6823 4.01447 10.6755 4.00589 10.6717 3.99591L9.73947 4.35784C9.81631 4.55575 9.95117 4.72581 10.1264 4.84573L10.6912 4.02052ZM10.6671 3.98448C10.3013 3.10698 9.68374 2.35748 8.89242 1.83056L8.33817 2.66291C8.96506 3.08034 9.45426 3.6741 9.74406 4.36927L10.6671 3.98448ZM8.89242 1.83056C8.1011 1.30363 7.17144 1.02289 6.22074 1.02375L6.22165 2.02375C6.9748 2.02307 7.71128 2.24547 8.33817 2.66291L8.89242 1.83056ZM10.7212 18.0238L10.7054 19.0236L10.7212 19.0239L10.737 19.0236L10.7212 18.0238ZM10.4493 17.9487L10.9484 17.0822L10.9068 17.0582L10.8631 17.0384L10.4493 17.9487ZM5.65869 14.4613L4.98913 15.204L4.99104 15.2057L5.65869 14.4613ZM0.783693 5.83625H1.78369L1.78369 5.83552L0.783693 5.83625ZM10.7212 2.78L9.89361 3.34134L10.7212 4.56146L11.5488 3.34134L10.7212 2.78ZM20.6587 5.83625L19.6587 5.83552V5.83625H20.6587ZM15.7837 14.4613L16.4514 15.2057L16.4533 15.204L15.7837 14.4613ZM10.9931 17.9487L10.5793 17.0384L10.5356 17.0582L10.494 17.0822L10.9931 17.9487ZM10.737 17.0239C10.8113 17.025 10.884 17.0451 10.9484 17.0822L9.95022 18.8153C10.1802 18.9477 10.4401 19.0194 10.7054 19.0236L10.737 17.0239ZM10.8631 17.0384C10.8965 17.0535 10.3518 16.7553 9.46125 16.1534C8.59878 15.5705 7.46518 14.7381 6.32635 13.7168L4.99104 15.2057C6.2147 16.3031 7.42486 17.1911 8.34129 17.8105C9.22968 18.4109 9.89903 18.7971 10.0355 18.8591L10.8631 17.0384ZM6.32825 13.7185C3.18902 10.8886 1.78369 8.24068 1.78369 5.83625H-0.216307C-0.216307 9.05682 1.65962 12.2026 4.98913 15.204L6.32825 13.7185ZM1.78369 5.83552C1.783 4.88588 2.08697 3.96107 2.65092 3.19702L1.04179 2.00929C0.223658 3.1177 -0.217314 4.45933 -0.216307 5.83698L1.78369 5.83552ZM2.65092 3.19702C3.21488 2.43297 4.00907 1.86999 4.91675 1.59083L4.32883 -0.320803C3.01205 0.0841689 1.85992 0.900884 1.04179 2.00929L2.65092 3.19702ZM4.91675 1.59083C5.82443 1.31168 6.79773 1.33107 7.69357 1.64617L8.35717 -0.240532C7.05757 -0.697639 5.64561 -0.725774 4.32883 -0.320803L4.91675 1.59083ZM7.69357 1.64617C8.58941 1.96126 9.36054 2.55543 9.89361 3.34134L11.5488 2.21866C10.7755 1.07854 9.65677 0.216575 8.35717 -0.240532L7.69357 1.64617ZM11.5488 3.34134C12.0818 2.55543 12.853 1.96126 13.7488 1.64617L13.0852 -0.240532C11.7856 0.216575 10.6669 1.07854 9.89361 2.21866L11.5488 3.34134ZM13.7488 1.64617C14.6447 1.33107 15.618 1.31168 16.5256 1.59083L17.1136 -0.320803C15.7968 -0.725774 14.3848 -0.697639 13.0852 -0.240532L13.7488 1.64617ZM16.5256 1.59083C17.4333 1.86999 18.2275 2.43297 18.7915 3.19702L20.4006 2.00929C19.5825 0.900884 18.4303 0.0841687 17.1136 -0.320803L16.5256 1.59083ZM18.7915 3.19702C19.3554 3.96107 19.6594 4.88588 19.6587 5.83552L21.6587 5.83698C21.6597 4.45933 21.2187 3.1177 20.4006 2.00929L18.7915 3.19702ZM19.6587 5.83625C19.6587 8.24068 18.2534 10.8886 15.1141 13.7185L16.4533 15.204C19.7828 12.2026 21.6587 9.05682 21.6587 5.83625H19.6587ZM15.116 13.7168C13.9772 14.7381 12.8436 15.5705 11.9811 16.1534C11.0906 16.7553 10.5459 17.0535 10.5793 17.0384L11.4069 18.8591C11.5434 18.7971 12.2127 18.4109 13.1011 17.8105C14.0175 17.1911 15.2277 16.3031 16.4514 15.2057L15.116 13.7168ZM10.494 17.0822C10.5583 17.0451 10.6311 17.025 10.7054 17.0239L10.737 19.0236C11.0023 19.0194 11.2622 18.9477 11.4922 18.8153L10.494 17.0822Z" fill="black" mask="url(#path-1-inside-1_486_918)"/>
</svg>
