<svg width="109" height="89" viewBox="0 0 109 89" fill="none" xmlns="http://www.w3.org/2000/svg">
<path d="M1 23.0625V66.875" stroke="black" stroke-width="1.875" stroke-miterlimit="10"/>
<path d="M108 23.0625V66.875" stroke="black" stroke-width="1.875" stroke-miterlimit="10"/>
<path d="M104.531 66.25L54.7187 87.8437L4.59375 66.25V23.6875L54.7187 2L104.406 23.625L104.531 66.25Z" stroke="black" stroke-width="1.875" stroke-miterlimit="10"/>
<path d="M64.3437 42.2812H45.9687C45.0937 42.2812 44.4062 41.5937 44.4062 40.7187V22.3437C44.4062 21.4687 45.0937 20.7812 45.9687 20.7812H64.3437C65.2187 20.7812 65.9062 21.4687 65.9062 22.3437V40.7187C65.9062 41.5937 65.1875 42.2812 64.3437 42.2812Z" stroke="black" stroke-width="0.937499" stroke-miterlimit="10"/>
<path d="M50.5937 30.4375C52.5613 30.4375 54.1562 28.8425 54.1562 26.875C54.1562 24.9075 52.5613 23.3125 50.5937 23.3125C48.6262 23.3125 47.0312 24.9075 47.0312 26.875C47.0312 28.8425 48.6262 30.4375 50.5937 30.4375Z" stroke="black" stroke-width="0.937499" stroke-miterlimit="10"/>
<path d="M59.8125 30.4375C61.78 30.4375 63.375 28.8425 63.375 26.875C63.375 24.9075 61.78 23.3125 59.8125 23.3125C57.845 23.3125 56.25 24.9075 56.25 26.875C56.25 28.8425 57.845 30.4375 59.8125 30.4375Z" stroke="black" stroke-width="0.937499" stroke-miterlimit="10"/>
<path d="M50.5937 39.6875C52.5613 39.6875 54.1562 38.0925 54.1562 36.125C54.1562 34.1575 52.5613 32.5625 50.5937 32.5625C48.6262 32.5625 47.0312 34.1575 47.0312 36.125C47.0312 38.0925 48.6262 39.6875 50.5937 39.6875Z" stroke="black" stroke-width="0.937499" stroke-miterlimit="10"/>
<path d="M47.5 28.3125L51.9062 23.6562" stroke="black" stroke-width="0.937499" stroke-miterlimit="10"/>
<path d="M49.25 29.9687L53.6562 25.3125" stroke="black" stroke-width="0.937499" stroke-miterlimit="10"/>
<path d="M59.8125 39.6875C61.78 39.6875 63.375 38.0925 63.375 36.125C63.375 34.1575 61.78 32.5625 59.8125 32.5625C57.845 32.5625 56.25 34.1575 56.25 36.125C56.25 38.0925 57.845 39.6875 59.8125 39.6875Z" stroke="black" stroke-width="0.937499" stroke-miterlimit="10"/>
<path d="M56.75 37.5312L61.125 32.9062" stroke="black" stroke-width="0.937499" stroke-miterlimit="10"/>
<path d="M58.5 39.1875L62.875 34.5625" stroke="black" stroke-width="0.937499" stroke-miterlimit="10"/>
<path d="M27.0587 62.5565C26.4981 62.5565 26.0025 62.459 25.5719 62.264C25.1494 62.069 24.8162 61.7968 24.5725 61.4474C24.3287 61.0981 24.1987 60.7081 24.1825 60.2774H25.0844C25.125 60.6918 25.3078 61.0574 25.6328 61.3743C25.9578 61.6831 26.4331 61.8374 27.0587 61.8374C27.6356 61.8374 28.0906 61.6912 28.4237 61.3987C28.765 61.0981 28.9356 60.7203 28.9356 60.2653C28.9356 59.8996 28.8422 59.6071 28.6553 59.3878C28.4684 59.1603 28.2369 58.9937 27.9606 58.8881C27.6844 58.7743 27.3025 58.6524 26.815 58.5224C26.2462 58.3681 25.7953 58.2178 25.4622 58.0715C25.1291 57.9253 24.8447 57.6978 24.6091 57.389C24.3734 57.0803 24.2556 56.6618 24.2556 56.1337C24.2556 55.6949 24.3694 55.3049 24.5969 54.9637C24.8244 54.6143 25.1453 54.3421 25.5597 54.1471C25.9741 53.9521 26.4494 53.8546 26.9856 53.8546C27.7737 53.8546 28.4075 54.0496 28.8869 54.4396C29.3744 54.8215 29.6547 55.3171 29.7278 55.9265H28.8016C28.7447 55.5771 28.5537 55.2684 28.2287 55.0003C27.9037 54.724 27.465 54.5859 26.9125 54.5859C26.4006 54.5859 25.9741 54.724 25.6328 55.0003C25.2916 55.2684 25.1209 55.6381 25.1209 56.1093C25.1209 56.4668 25.2144 56.7553 25.4012 56.9746C25.5881 57.194 25.8197 57.3606 26.0959 57.4743C26.3803 57.5881 26.7622 57.7099 27.2416 57.8399C27.7941 57.9943 28.2409 58.1487 28.5822 58.3031C28.9234 58.4493 29.2119 58.6768 29.4475 58.9856C29.6831 59.2943 29.8009 59.7087 29.8009 60.2287C29.8009 60.6268 29.6953 61.0046 29.4841 61.3621C29.2728 61.7196 28.96 62.0081 28.5456 62.2274C28.1312 62.4468 27.6356 62.5565 27.0587 62.5565ZM41.1192 53.9521V62.4712H40.2661V58.4859H35.647V62.4712H34.7939V53.9521H35.647V57.779H40.2661V53.9521H41.1192ZM51.346 60.4481H47.4704L46.727 62.4712H45.8251L48.9329 54.0618H49.8957L52.9913 62.4712H52.0895L51.346 60.4481ZM51.0901 59.7412L49.4082 55.1343L47.7264 59.7412H51.0901ZM60.2278 53.9521C61.1703 53.9521 61.9787 54.1228 62.6531 54.464C63.3275 54.8053 63.8434 55.2968 64.2009 55.9387C64.5584 56.5806 64.7371 57.3443 64.7371 58.2299C64.7371 59.1074 64.5584 59.8671 64.2009 60.509C63.8434 61.1428 63.3275 61.6303 62.6531 61.9715C61.9787 62.3046 61.1703 62.4712 60.2278 62.4712H57.705V53.9521H60.2278ZM60.2278 61.7643C61.414 61.7643 62.3159 61.4556 62.9334 60.8381C63.559 60.2124 63.8718 59.3431 63.8718 58.2299C63.8718 57.1087 63.559 56.2353 62.9334 55.6096C62.3159 54.9759 61.414 54.659 60.2278 54.659H58.5581V61.7643H60.2278ZM70.5075 54.6468V57.8278H73.7372V58.5346H70.5075V61.7643H74.1028V62.4712H69.6544V53.9399H74.1028V54.6468H70.5075ZM81.712 62.5565C81.1514 62.5565 80.6558 62.459 80.2252 62.264C79.8027 62.069 79.4695 61.7968 79.2258 61.4474C78.982 61.0981 78.852 60.7081 78.8358 60.2774H79.7377C79.7783 60.6918 79.9611 61.0574 80.2861 61.3743C80.6111 61.6831 81.0864 61.8374 81.712 61.8374C82.2889 61.8374 82.7439 61.6912 83.077 61.3987C83.4183 61.0981 83.5889 60.7203 83.5889 60.2653C83.5889 59.8996 83.4955 59.6071 83.3086 59.3878C83.1217 59.1603 82.8902 58.9937 82.6139 58.8881C82.3377 58.7743 81.9558 58.6524 81.4683 58.5224C80.8995 58.3681 80.4486 58.2178 80.1155 58.0715C79.7823 57.9253 79.498 57.6978 79.2623 57.389C79.0267 57.0803 78.9089 56.6618 78.9089 56.1337C78.9089 55.6949 79.0227 55.3049 79.2502 54.9637C79.4777 54.6143 79.7986 54.3421 80.213 54.1471C80.6273 53.9521 81.1027 53.8546 81.6389 53.8546C82.427 53.8546 83.0608 54.0496 83.5402 54.4396C84.0277 54.8215 84.308 55.3171 84.3811 55.9265H83.4548C83.398 55.5771 83.207 55.2684 82.882 55.0003C82.557 54.724 82.1183 54.5859 81.5658 54.5859C81.0539 54.5859 80.6273 54.724 80.2861 55.0003C79.9448 55.2684 79.7742 55.6381 79.7742 56.1093C79.7742 56.4668 79.8677 56.7553 80.0545 56.9746C80.2414 57.194 80.473 57.3606 80.7492 57.4743C81.0336 57.5881 81.4155 57.7099 81.8948 57.8399C82.4473 57.9943 82.8942 58.1487 83.2355 58.3031C83.5767 58.4493 83.8652 58.6768 84.1008 58.9856C84.3364 59.2943 84.4542 59.7087 84.4542 60.2287C84.4542 60.6268 84.3486 61.0046 84.1373 61.3621C83.9261 61.7196 83.6133 62.0081 83.1989 62.2274C82.7845 62.4468 82.2889 62.5565 81.712 62.5565Z" fill="black"/>
</svg>
