<svg width="25" height="25" viewBox="0 0 25 25" fill="none" xmlns="http://www.w3.org/2000/svg">
<mask id="path-1-inside-1_118_612" fill="white">
<path d="M12.7207 21.0237C12.6252 21.0222 12.5316 20.9963 12.4488 20.9487C12.3457 20.9018 10.0207 19.5799 7.65821 17.4612C4.42383 14.5455 2.7832 11.6487 2.7832 8.83616C2.78235 7.67252 3.15483 6.53929 3.84587 5.60306C4.53691 4.66683 5.51007 3.97699 6.6223 3.63492C7.73453 3.29286 8.92716 3.31663 10.0249 3.70273C11.1226 4.08882 12.0675 4.81689 12.7207 5.77991C13.3739 4.81689 14.3188 4.08882 15.4165 3.70273C16.5142 3.31663 17.7069 3.29286 18.8191 3.63492C19.9313 3.97699 20.9045 4.66683 21.5955 5.60306C22.2866 6.53929 22.6591 7.67252 22.6582 8.83616C22.6582 11.6487 21.0176 14.5455 17.7832 17.4612C15.4207 19.5799 13.0957 20.9018 12.9926 20.9487C12.9098 20.9963 12.8162 21.0222 12.7207 21.0237ZM8.22071 4.52366C7.07696 4.52366 5.98006 4.97801 5.17131 5.78676C4.36256 6.59551 3.9082 7.69241 3.9082 8.83616C3.9082 14.208 11.202 18.8955 12.7207 19.8049C14.2395 18.8955 21.5332 14.208 21.5332 8.83616C21.5354 7.8376 21.191 6.86922 20.5587 6.0963C19.9265 5.32338 19.0456 4.79381 18.0665 4.59798C17.0873 4.40214 16.0705 4.55218 15.1896 5.02248C14.3088 5.49278 13.6184 6.25419 13.2363 7.17678C13.196 7.28073 13.1251 7.37005 13.0331 7.43303C12.9411 7.49601 12.8322 7.52971 12.7207 7.52971C12.6092 7.52971 12.5003 7.49601 12.4083 7.43303C12.3163 7.37005 12.2454 7.28073 12.2051 7.17678C11.8773 6.39045 11.3239 5.71882 10.6148 5.24664C9.9057 4.77446 9.07263 4.52289 8.22071 4.52366Z"/>
<path d="M8.22071 4.52366C7.07696 4.52366 5.98006 4.97801 5.17131 5.78676C4.36256 6.59551 3.9082 7.69241 3.9082 8.83616C3.9082 14.208 11.202 18.8955 12.7207 19.8049C14.2395 18.8955 21.5332 14.208 21.5332 8.83616C21.5354 7.8376 21.191 6.86922 20.5587 6.0963C19.9265 5.32338 19.0456 4.79381 18.0665 4.59798C17.0873 4.40214 16.0705 4.55218 15.1896 5.02248C14.3088 5.49278 13.6184 6.25419 13.2363 7.17678C13.196 7.28073 13.1251 7.37005 13.0331 7.43303C12.9411 7.49601 12.8322 7.52971 12.7207 7.52971C12.6092 7.52971 12.5003 7.49601 12.4083 7.43303C12.3163 7.37005 12.2454 7.28073 12.2051 7.17678C11.8773 6.39045 11.3239 5.71882 10.6148 5.24664C9.9057 4.77446 9.07263 4.52289 8.22071 4.52366Z"/>
</mask>
<path d="M12.7207 21.0237C12.6252 21.0222 12.5316 20.9963 12.4488 20.9487C12.3457 20.9018 10.0207 19.5799 7.65821 17.4612C4.42383 14.5455 2.7832 11.6487 2.7832 8.83616C2.78235 7.67252 3.15483 6.53929 3.84587 5.60306C4.53691 4.66683 5.51007 3.97699 6.6223 3.63492C7.73453 3.29286 8.92716 3.31663 10.0249 3.70273C11.1226 4.08882 12.0675 4.81689 12.7207 5.77991C13.3739 4.81689 14.3188 4.08882 15.4165 3.70273C16.5142 3.31663 17.7069 3.29286 18.8191 3.63492C19.9313 3.97699 20.9045 4.66683 21.5955 5.60306C22.2866 6.53929 22.6591 7.67252 22.6582 8.83616C22.6582 11.6487 21.0176 14.5455 17.7832 17.4612C15.4207 19.5799 13.0957 20.9018 12.9926 20.9487C12.9098 20.9963 12.8162 21.0222 12.7207 21.0237ZM8.22071 4.52366C7.07696 4.52366 5.98006 4.97801 5.17131 5.78676C4.36256 6.59551 3.9082 7.69241 3.9082 8.83616C3.9082 14.208 11.202 18.8955 12.7207 19.8049C14.2395 18.8955 21.5332 14.208 21.5332 8.83616C21.5354 7.8376 21.191 6.86922 20.5587 6.0963C19.9265 5.32338 19.0456 4.79381 18.0665 4.59798C17.0873 4.40214 16.0705 4.55218 15.1896 5.02248C14.3088 5.49278 13.6184 6.25419 13.2363 7.17678C13.196 7.28073 13.1251 7.37005 13.0331 7.43303C12.9411 7.49601 12.8322 7.52971 12.7207 7.52971C12.6092 7.52971 12.5003 7.49601 12.4083 7.43303C12.3163 7.37005 12.2454 7.28073 12.2051 7.17678C11.8773 6.39045 11.3239 5.71882 10.6148 5.24664C9.9057 4.77446 9.07263 4.52289 8.22071 4.52366Z" fill="black"/>
<path d="M8.22071 4.52366C7.07696 4.52366 5.98006 4.97801 5.17131 5.78676C4.36256 6.59551 3.9082 7.69241 3.9082 8.83616C3.9082 14.208 11.202 18.8955 12.7207 19.8049C14.2395 18.8955 21.5332 14.208 21.5332 8.83616C21.5354 7.8376 21.191 6.86922 20.5587 6.0963C19.9265 5.32338 19.0456 4.79381 18.0665 4.59798C17.0873 4.40214 16.0705 4.55218 15.1896 5.02248C14.3088 5.49278 13.6184 6.25419 13.2363 7.17678C13.196 7.28073 13.1251 7.37005 13.0331 7.43303C12.9411 7.49601 12.8322 7.52971 12.7207 7.52971C12.6092 7.52971 12.5003 7.49601 12.4083 7.43303C12.3163 7.37005 12.2454 7.28073 12.2051 7.17678C11.8773 6.39045 11.3239 5.71882 10.6148 5.24664C9.9057 4.77446 9.07263 4.52289 8.22071 4.52366Z" fill="black" fill-opacity="0.2"/>
<path d="M8.22071 4.52366L8.22071 5.02366L8.22116 5.02366L8.22071 4.52366ZM3.9082 8.83616H3.4082H3.9082ZM12.7207 19.8049L12.4638 20.2339L12.7207 20.3877L12.9776 20.2339L12.7207 19.8049ZM21.5332 8.83616L21.0332 8.83506V8.83616H21.5332ZM13.2363 7.17678L12.7743 6.98544L12.7702 6.99582L13.2363 7.17678ZM12.7207 7.52971L12.7207 7.02971L12.7207 7.52971ZM12.2051 7.17678L12.6713 6.99576L12.6666 6.98439L12.2051 7.17678ZM8.22071 4.02366C6.94435 4.02366 5.72027 4.53069 4.81775 5.43321L5.52486 6.14031C6.23984 5.42533 7.20957 5.02366 8.22071 5.02366V4.02366ZM4.81775 5.43321C3.91523 6.33572 3.4082 7.5598 3.4082 8.83616H4.4082C4.4082 7.82502 4.80988 6.8553 5.52486 6.14031L4.81775 5.43321ZM3.4082 8.83616C3.4082 11.7364 5.36369 14.3766 7.39641 16.3525C9.44911 18.3478 11.6891 19.77 12.4638 20.2339L12.9776 19.3759C12.2336 18.9305 10.0673 17.5542 8.09343 15.6354C6.09959 13.6973 4.4082 11.3078 4.4082 8.83616H3.4082ZM12.9776 20.2339C13.7524 19.77 15.9923 18.3478 18.045 16.3525C20.0777 14.3766 22.0332 11.7364 22.0332 8.83616H21.0332C21.0332 11.3078 19.3418 13.6973 17.348 15.6354C15.3741 17.5542 13.2078 18.9305 12.4638 19.3759L12.9776 20.2339ZM22.0332 8.83725C22.0356 7.72291 21.6513 6.64227 20.9458 5.77973L20.1717 6.41287C20.7307 7.09618 21.0351 7.95228 21.0332 8.83506L22.0332 8.83725ZM20.9458 5.77973C20.2402 4.91719 19.2572 4.32623 18.1645 4.10769L17.9684 5.08827C18.8341 5.2614 19.6128 5.72956 20.1717 6.41287L20.9458 5.77973ZM18.1645 4.10769C17.0718 3.88915 15.9371 4.05658 14.9541 4.58141L15.4251 5.46355C16.2039 5.04778 17.1028 4.91514 17.9684 5.08827L18.1645 4.10769ZM14.9541 4.58141C13.9711 5.10623 13.2007 5.95593 12.7744 6.98548L13.6983 7.36808C14.036 6.55246 14.6464 5.87932 15.4251 5.46355L14.9541 4.58141ZM12.7702 6.99582C12.7664 7.0058 12.7596 7.01438 12.7507 7.02043L13.3155 7.84563C13.4907 7.72572 13.6256 7.55566 13.7024 7.35775L12.7702 6.99582ZM12.7507 7.02043C12.7419 7.02648 12.7314 7.02971 12.7207 7.02971L12.7207 8.02971C12.933 8.02971 13.1403 7.96555 13.3155 7.84563L12.7507 7.02043ZM12.7207 7.02971C12.71 7.02971 12.6995 7.02648 12.6907 7.02043L12.1259 7.84563C12.3011 7.96555 12.5084 8.02971 12.7207 8.02971L12.7207 7.02971ZM12.6907 7.02043C12.6819 7.01438 12.6751 7.0058 12.6712 6.99582L11.739 7.35775C11.8158 7.55566 11.9507 7.72572 12.1259 7.84563L12.6907 7.02043ZM12.6666 6.98439C12.3008 6.10689 11.6832 5.35739 10.8919 4.83046L10.3377 5.66282C10.9646 6.08025 11.4538 6.67401 11.7436 7.36917L12.6666 6.98439ZM10.8919 4.83046C10.1006 4.30354 9.17095 4.0228 8.22025 4.02366L8.22116 5.02366C8.97431 5.02298 9.71079 5.24538 10.3377 5.66282L10.8919 4.83046ZM12.7207 21.0237L12.7049 22.0235L12.7207 22.0238L12.7365 22.0235L12.7207 21.0237ZM12.4488 20.9487L12.9479 20.0821L12.9063 20.0582L12.8626 20.0383L12.4488 20.9487ZM7.65821 17.4612L6.98864 18.2039L6.99055 18.2056L7.65821 17.4612ZM2.7832 8.83616L3.7832 8.83616L3.7832 8.83543L2.7832 8.83616ZM12.7207 5.77991L11.8931 6.34125L12.7207 7.56136L13.5483 6.34125L12.7207 5.77991ZM22.6582 8.83616L21.6582 8.83543V8.83616H22.6582ZM17.7832 17.4612L18.4509 18.2056L18.4528 18.2039L17.7832 17.4612ZM12.9926 20.9487L12.5788 20.0383L12.5351 20.0582L12.4935 20.0821L12.9926 20.9487ZM12.7365 20.0238C12.8108 20.025 12.8836 20.045 12.9479 20.0821L11.9497 21.8152C12.1797 21.9476 12.4396 22.0193 12.7049 22.0235L12.7365 20.0238ZM12.8626 20.0383C12.896 20.0535 12.3513 19.7552 11.4608 19.1534C10.5983 18.5704 9.4647 17.738 8.32586 16.7167L6.99055 18.2056C8.21421 19.303 9.42437 20.191 10.3408 20.8104C11.2292 21.4108 11.8985 21.797 12.035 21.859L12.8626 20.0383ZM8.32776 16.7184C5.18853 13.8885 3.7832 11.2406 3.7832 8.83616H1.7832C1.7832 12.0567 3.65913 15.2025 6.98865 18.2039L8.32776 16.7184ZM3.7832 8.83543C3.78251 7.88579 4.08648 6.96097 4.65044 6.19692L3.0413 5.0092C2.22317 6.11761 1.7822 7.45924 1.7832 8.83689L3.7832 8.83543ZM4.65044 6.19692C5.21439 5.43288 6.00858 4.8699 6.91626 4.59074L6.32834 2.67911C5.01156 3.08408 3.85943 3.90079 3.0413 5.0092L4.65044 6.19692ZM6.91626 4.59074C7.82394 4.31159 8.79724 4.33098 9.69308 4.64607L10.3567 2.75938C9.05708 2.30227 7.64512 2.27413 6.32834 2.67911L6.91626 4.59074ZM9.69308 4.64607C10.5889 4.96117 11.36 5.55534 11.8931 6.34125L13.5483 5.21857C12.775 4.07845 11.6563 3.21648 10.3567 2.75938L9.69308 4.64607ZM13.5483 6.34125C14.0814 5.55534 14.8525 4.96117 15.7483 4.64607L15.0847 2.75938C13.7851 3.21648 12.6664 4.07845 11.8931 5.21857L13.5483 6.34125ZM15.7483 4.64607C16.6442 4.33098 17.6175 4.31159 18.5251 4.59074L19.1131 2.67911C17.7963 2.27413 16.3843 2.30227 15.0847 2.75938L15.7483 4.64607ZM18.5251 4.59074C19.4328 4.8699 20.227 5.43288 20.791 6.19692L22.4001 5.0092C21.582 3.90079 20.4298 3.08408 19.1131 2.67911L18.5251 4.59074ZM20.791 6.19692C21.3549 6.96097 21.6589 7.88579 21.6582 8.83543L23.6582 8.83689C23.6592 7.45924 23.2182 6.11761 22.4001 5.0092L20.791 6.19692ZM21.6582 8.83616C21.6582 11.2406 20.2529 13.8885 17.1136 16.7184L18.4528 18.2039C21.7823 15.2025 23.6582 12.0567 23.6582 8.83616H21.6582ZM17.1155 16.7167C15.9767 17.738 14.8431 18.5704 13.9806 19.1534C13.0901 19.7552 12.5454 20.0535 12.5788 20.0383L13.4064 21.859C13.5429 21.797 14.2122 21.4108 15.1006 20.8104C16.017 20.191 17.2272 19.303 18.4509 18.2056L17.1155 16.7167ZM12.4935 20.0821C12.5579 20.045 12.6306 20.025 12.7049 20.0238L12.7365 22.0235C13.0018 22.0193 13.2617 21.9476 13.4917 21.8152L12.4935 20.0821Z" fill="black" mask="url(#path-1-inside-1_118_612)"/>
</svg>
