<svg width="25" height="25" viewBox="0 0 25 25" fill="none" xmlns="http://www.w3.org/2000/svg">
<path opacity="0.2" d="M11.5962 18.9612C15.9454 18.9612 19.4712 15.4354 19.4712 11.0862C19.4712 6.73694 15.9454 3.21118 11.5962 3.21118C7.24695 3.21118 3.72119 6.73694 3.72119 11.0862C3.72119 15.4354 7.24695 18.9612 11.5962 18.9612Z" fill="black"/>
<path d="M17.8132 16.3051L17.5181 16.6565L17.8429 16.9807L21.9002 21.0286C21.9005 21.0288 21.9007 21.0291 21.901 21.0293C21.9486 21.0778 21.9753 21.1431 21.9753 21.2111C21.9753 21.2777 21.9497 21.3416 21.904 21.3897C21.8543 21.4359 21.789 21.4616 21.7211 21.4616C21.6525 21.4616 21.5865 21.4353 21.5367 21.3883L17.4907 17.3329L17.1665 17.0081L16.8151 17.3032C15.2081 18.653 13.142 19.3303 11.0477 19.1938C8.95347 19.0574 6.99275 18.1176 5.57451 16.5707C4.15626 15.0237 3.38999 12.9889 3.43551 10.8907C3.48104 8.79248 4.33484 6.79284 5.81885 5.30884C7.30285 3.82483 9.30249 2.97103 11.4007 2.9255C13.4989 2.87998 15.5337 3.64625 17.0807 5.0645C18.6276 6.48274 19.5674 8.44346 19.7039 10.5377C19.8403 12.632 19.163 14.6981 17.8132 16.3051ZM3.97109 11.0861L3.97109 11.0867C3.97375 13.108 4.77788 15.0458 6.20714 16.475C7.63641 17.9043 9.57415 18.7084 11.5954 18.7111H11.5961C13.1042 18.7111 14.5784 18.2639 15.8323 17.426C17.0862 16.5882 18.0636 15.3973 18.6407 14.004C19.2178 12.6108 19.3688 11.0776 19.0746 9.59852C18.7804 8.11941 18.0542 6.76077 16.9878 5.69439C15.9214 4.62802 14.5628 3.90181 13.0837 3.6076C11.6046 3.31338 10.0714 3.46438 8.67813 4.0415C7.28485 4.61862 6.09398 5.59594 5.25614 6.84986C4.41829 8.10379 3.97109 9.578 3.97109 11.0861Z" fill="black" stroke="black"/>
</svg>
