<svg width="25" height="25" viewBox="0 0 25 25" fill="none" xmlns="http://www.w3.org/2000/svg">
<g clip-path="url(#clip0_489_919)">
<path d="M9.72119 22.2112C10.2735 22.2112 10.7212 21.7635 10.7212 21.2112C10.7212 20.6589 10.2735 20.2112 9.72119 20.2112C9.16891 20.2112 8.72119 20.6589 8.72119 21.2112C8.72119 21.7635 9.16891 22.2112 9.72119 22.2112Z" stroke="black" stroke-width="2" stroke-linecap="round" stroke-linejoin="round"/>
<path d="M20.7212 22.2112C21.2735 22.2112 21.7212 21.7635 21.7212 21.2112C21.7212 20.6589 21.2735 20.2112 20.7212 20.2112C20.1689 20.2112 19.7212 20.6589 19.7212 21.2112C19.7212 21.7635 20.1689 22.2112 20.7212 22.2112Z" stroke="black" stroke-width="2" stroke-linecap="round" stroke-linejoin="round"/>
<path d="M9.10874 15.7695C8.7431 15.4751 8.49264 15.0616 8.40119 14.6012L6.72119 6.21118H6.72194H23.7212L22.1212 14.6012C22.0297 15.0616 21.7793 15.4751 21.4136 15.7695C21.048 16.0638 20.5905 16.2202 20.1212 16.2112H10.4012C9.93189 16.2202 9.47437 16.0638 9.10874 15.7695Z" fill="#CABFB4"/>
<path d="M1.72119 1.21118H5.72119L8.40119 14.6012M8.40119 14.6012C8.49264 15.0616 8.7431 15.4751 9.10874 15.7695C9.47437 16.0638 9.93189 16.2202 10.4012 16.2112H20.1212C20.5905 16.2202 21.048 16.0638 21.4136 15.7695C21.7793 15.4751 22.0297 15.0616 22.1212 14.6012L23.7212 6.21118H6.72119L8.40119 14.6012Z" stroke="black" stroke-width="1.5" stroke-linecap="round" stroke-linejoin="round"/>
</g>
<defs>
<clipPath id="clip0_489_919">
<rect width="24" height="24" fill="white" transform="translate(0.721191 0.211182)"/>
</clipPath>
</defs>
</svg>
