<svg width="21" height="20" viewBox="0 0 21 20" fill="none" xmlns="http://www.w3.org/2000/svg">
<path d="M20.2555 18.6768L16.1961 14.6268C17.6288 12.9211 18.3477 10.7281 18.2028 8.50527C18.0579 6.28243 17.0605 4.20132 15.4186 2.696C13.7766 1.19068 11.6169 0.377363 9.38985 0.425681C7.16282 0.473999 5.04041 1.38022 3.46529 2.95534C1.89017 4.53047 0.983948 6.65287 0.93563 8.8799C0.887311 11.1069 1.70063 13.2667 3.20595 14.9086C4.71127 16.5506 6.79238 17.548 9.01522 17.6929C11.2381 17.8377 13.431 17.1188 15.1367 15.6861L19.1867 19.7455C19.3301 19.8841 19.5217 19.9616 19.7211 19.9616C19.9205 19.9616 20.1121 19.8841 20.2555 19.7455C20.3963 19.6033 20.4753 19.4113 20.4753 19.2111C20.4753 19.011 20.3963 18.819 20.2555 18.6768ZM2.47109 9.08614C2.47109 7.67695 2.88897 6.29941 3.67187 5.12771C4.45478 3.95601 5.56755 3.04278 6.86947 2.5035C8.1714 1.96423 9.604 1.82313 10.9861 2.09805C12.3682 2.37297 13.6378 3.05156 14.6342 4.04801C15.6307 5.04446 16.3093 6.31401 16.5842 7.69613C16.8591 9.07824 16.718 10.5108 16.1787 11.8128C15.6395 13.1147 14.7262 14.2275 13.5545 15.0104C12.3828 15.7933 11.0053 16.2111 9.59609 16.2111C7.70719 16.2087 5.89636 15.4572 4.5607 14.1215C3.22504 12.7859 2.47357 10.9751 2.47109 9.08614Z" fill="black"/>
<path d="M2.47109 9.08614C2.47109 7.67695 2.88897 6.29941 3.67187 5.12771C4.45478 3.95601 5.56755 3.04278 6.86947 2.5035C8.1714 1.96423 9.604 1.82313 10.9861 2.09805C12.3682 2.37297 13.6378 3.05156 14.6342 4.04801C15.6307 5.04446 16.3093 6.31401 16.5842 7.69613C16.8591 9.07824 16.718 10.5108 16.1787 11.8128C15.6395 13.1147 14.7262 14.2275 13.5545 15.0104C12.3828 15.7933 11.0053 16.2111 9.59609 16.2111C7.70719 16.2087 5.89636 15.4572 4.5607 14.1215C3.22504 12.7859 2.47357 10.9751 2.47109 9.08614Z" fill="black" fill-opacity="0.2"/>
</svg>
